# xmcd
#
# Track frame offsets:
#	150
#	15010
#	28725
#	42682
#	56209
#	68103
#	79730
#	93151
#	101470
#	112606
#	126732
#	144425
#	159964
#	179167
#	196902
#	214605
#
# Disc length: 3048 seconds
#
# Revision: 0
# Processed by: cddbd v1.5.2PL0 Copyright (c) Steve Scherf et al.
# Submitted via: EasyCDDAExtractor 16.0.6.1
#
DISCID=d60be610
DTITLE=패티킴 - FINAL CURTAIM - The ONE and ONLY CD2
DYEAR=2012
DGENRE=Country
TTITLE0=이별
TTITLE1=가을을 남기고 간 사랑
TTITLE2=추억속에 혼자 걸었네
TTITLE3=사랑하는 마리아
TTITLE4=사랑의 계절
TTITLE5=사랑하는 당신이
TTITLE6=서울의 모정
TTITLE7=서울의 찬가
TTITLE8=9월의 노래
TTITLE9=연인의 길
TTITLE10=못잊어
TTITLE11=사랑은 생명의 꽃
TTITLE12=우리 사랑 (with 조영남)
TTITLE13=가시나무새
TTITLE14=그대 내 친구여
TTITLE15=그대 없이는 못살아 (with 이문세)
EXTD=
EXTT0=
EXTT1=
EXTT2=
EXTT3=
EXTT4=
EXTT5=
EXTT6=
EXTT7=
EXTT8=
EXTT9=
EXTT10=
EXTT11=
EXTT12=
EXTT13=
EXTT14=
EXTT15=
PLAYORDER=
